<svg width="350" viewBox="0 0 381 308" fill="none" xmlns="http://www.w3.org/2000/svg">
<path opacity="0.2" d="M94.9946 251.94L94.9946 63.8164L189.056 157.878L94.9946 251.94Z" stroke="#282A36"/>
<rect opacity="0.2" x="283.062" y="64" width="133.023" height="133.023" transform="rotate(45 283.062 64)" stroke="#282A36"/>
<path d="M234.206 303H231.94V290.13L227.452 303H224.46L219.972 290.13V303H217.706V288.37H221.644L225.978 300.8L230.312 288.37H234.206V303ZM240.257 303.286C239.127 303.286 238.233 303 237.573 302.428C236.927 301.856 236.605 301.064 236.605 300.052C236.605 299.143 236.861 298.417 237.375 297.874C237.903 297.317 238.761 296.935 239.949 296.73L242.699 296.268C243.241 296.18 243.63 296.041 243.865 295.85C244.114 295.659 244.239 295.373 244.239 294.992C244.239 294.449 244.055 294.039 243.689 293.76C243.337 293.467 242.713 293.32 241.819 293.32C240.924 293.32 240.249 293.496 239.795 293.848C239.355 294.2 239.105 294.728 239.047 295.432H236.847C236.861 294.244 237.294 293.313 238.145 292.638C238.995 291.963 240.191 291.626 241.731 291.626C243.212 291.626 244.334 291.934 245.097 292.55C245.874 293.166 246.263 293.995 246.263 295.036V300.492C246.263 301.299 246.299 302.135 246.373 303H244.371C244.283 302.135 244.239 301.306 244.239 300.514C243.989 301.306 243.535 301.966 242.875 302.494C242.215 303.022 241.342 303.286 240.257 303.286ZM240.719 301.592C241.833 301.592 242.699 301.225 243.315 300.492C243.931 299.744 244.239 298.798 244.239 297.654V296.994C243.975 297.185 243.689 297.339 243.381 297.456C243.073 297.559 242.706 297.661 242.281 297.764L240.763 298.116C240.073 298.277 239.575 298.505 239.267 298.798C238.959 299.077 238.805 299.465 238.805 299.964C238.805 300.477 238.973 300.881 239.311 301.174C239.663 301.453 240.132 301.592 240.719 301.592ZM258.937 292L254.339 303.968C253.987 304.877 253.672 305.559 253.393 306.014C253.115 306.469 252.733 306.813 252.249 307.048C251.765 307.283 251.091 307.4 250.225 307.4H248.333V305.64H251.589L252.623 303H251.831L247.673 292H249.939L252.909 299.854L253.371 301.174L253.789 299.854L256.803 292H258.937ZM274.132 298.314H265.332V296.664H274.132V298.314ZM291.469 299.524H284.385L283.087 303H280.799L286.233 288.37H289.643L295.077 303H292.767L291.469 299.524ZM290.787 297.698L287.927 289.976L285.067 297.698H290.787ZM306.636 292V303H304.436V300.602C303.703 302.435 302.405 303.352 300.542 303.352C299.12 303.352 298.078 302.978 297.418 302.23C296.773 301.467 296.45 300.345 296.45 298.864V292H298.65V298.666C298.65 299.737 298.87 300.485 299.31 300.91C299.765 301.321 300.403 301.526 301.224 301.526C302.222 301.526 303.006 301.115 303.578 300.294C304.15 299.458 304.436 298.241 304.436 296.642V292H306.636ZM320.296 292V302.956C320.296 304.511 319.849 305.677 318.954 306.454C318.074 307.246 316.637 307.642 314.642 307.642C312.97 307.642 311.665 307.297 310.726 306.608C309.788 305.919 309.267 304.914 309.164 303.594H311.364C311.511 305.163 312.611 305.948 314.664 305.948C315.882 305.948 316.754 305.713 317.282 305.244C317.825 304.789 318.096 304.005 318.096 302.89V300.778C317.378 302.069 316.058 302.714 314.136 302.714C312.42 302.714 311.122 302.223 310.242 301.24C309.377 300.243 308.944 298.901 308.944 297.214C308.944 295.527 309.377 294.193 310.242 293.21C311.122 292.213 312.42 291.714 314.136 291.714C316.014 291.714 317.334 292.396 318.096 293.76V292H320.296ZM314.664 301.02C315.838 301.02 316.703 300.719 317.26 300.118C317.818 299.517 318.096 298.549 318.096 297.214C318.096 295.879 317.818 294.911 317.26 294.31C316.703 293.709 315.838 293.408 314.664 293.408C313.432 293.408 312.538 293.701 311.98 294.288C311.438 294.86 311.166 295.835 311.166 297.214C311.166 298.593 311.438 299.575 311.98 300.162C312.538 300.734 313.432 301.02 314.664 301.02ZM333.208 292V303H331.008V300.602C330.275 302.435 328.977 303.352 327.114 303.352C325.692 303.352 324.65 302.978 323.99 302.23C323.345 301.467 323.022 300.345 323.022 298.864V292H325.222V298.666C325.222 299.737 325.442 300.485 325.882 300.91C326.337 301.321 326.975 301.526 327.796 301.526C328.794 301.526 329.578 301.115 330.15 300.294C330.722 299.458 331.008 298.241 331.008 296.642V292H333.208ZM337.449 299.326C337.493 300.045 337.772 300.624 338.285 301.064C338.799 301.504 339.561 301.724 340.573 301.724C341.497 301.724 342.135 301.585 342.487 301.306C342.839 301.013 343.015 300.587 343.015 300.03C343.015 299.575 342.876 299.223 342.597 298.974C342.333 298.71 341.915 298.534 341.343 298.446L338.615 298.028C337.662 297.881 336.929 297.551 336.415 297.038C335.917 296.525 335.667 295.85 335.667 295.014C335.667 293.958 336.071 293.129 336.877 292.528C337.684 291.927 338.806 291.626 340.243 291.626C341.637 291.626 342.759 291.949 343.609 292.594C344.46 293.225 344.922 294.068 344.995 295.124H342.795C342.737 294.581 342.487 294.134 342.047 293.782C341.607 293.43 340.984 293.254 340.177 293.254C339.371 293.254 338.769 293.401 338.373 293.694C337.992 293.973 337.801 294.347 337.801 294.816C337.801 295.183 337.911 295.483 338.131 295.718C338.366 295.953 338.762 296.114 339.319 296.202L341.695 296.554C342.986 296.745 343.888 297.126 344.401 297.698C344.915 298.255 345.171 298.996 345.171 299.92C345.171 301.064 344.79 301.922 344.027 302.494C343.265 303.066 342.091 303.352 340.507 303.352C338.777 303.352 337.493 302.985 336.657 302.252C335.821 301.504 335.403 300.529 335.403 299.326H337.449ZM351.482 303C350.602 303 349.92 302.89 349.436 302.67C348.967 302.435 348.637 302.091 348.446 301.636C348.256 301.167 348.16 300.543 348.16 299.766V293.694H346.07V292.55L348.358 291.758L349.26 289.514H350.36V292H353.88V293.694H350.36V301.24H353.66V303H351.482Z" fill="#282A36"/>
<path d="M7.97696 112.269L4.71861 115.528L12.2422 123.051L15.5006 119.793C17.967 117.327 17.3108 114.521 15.263 112.473C13.2378 110.448 10.4433 109.803 7.97696 112.269ZM14.3353 119.08L12.4685 120.947L6.82296 115.301L8.68972 113.435C10.5565 111.568 12.163 111.817 14.0411 113.695C15.9192 115.573 16.202 117.213 14.3353 119.08ZM13.5671 108.716L14.9926 107.29L13.9744 106.272L12.5488 107.697L13.5671 108.716ZM20.2195 115.074L21.3509 113.943L15.6941 108.286L14.5627 109.417L20.2195 115.074ZM21.3436 102.636L24.2286 109.051L17.8137 106.166L16.6484 107.331L24.4548 110.839L25.9483 109.345L22.441 101.539L21.3436 102.636ZM30.7265 103.255C29.7535 104.228 28.5996 104.522 27.0835 103.187L31.5411 98.7291C31.4167 98.5594 31.2809 98.4236 31.1338 98.2765C29.516 96.6587 27.3098 96.3079 25.5109 98.1068C23.5763 100.041 23.9949 102.316 25.6467 103.967C27.3211 105.642 29.516 106.14 31.5298 104.126C33.521 102.134 33.0345 100.403 32.3557 99.521L31.3148 100.562C31.7448 101.309 31.7561 102.225 30.7265 103.255ZM26.3594 98.9327C27.3664 97.9258 28.4525 97.8805 29.6517 98.9667L26.2689 102.349C25.1489 100.958 25.3865 99.9057 26.3594 98.9327ZM32.5403 91.2585C31.4881 92.3107 31.4994 93.5439 31.9972 94.7205L30.6282 93.3515L29.5082 94.4716L35.165 100.128L36.2964 98.9971L34.1355 96.8361C32.5968 95.2975 32.0085 93.9851 33.5245 92.4691L33.8074 92.1862L32.71 91.0888L32.5403 91.2585ZM38.0298 85.95L38.9349 86.8551C37.894 86.5609 36.8419 86.8438 35.8462 87.8394C34.0247 89.6609 34.3415 91.6747 36.0046 93.3378C37.6678 95.0009 39.6816 95.3177 41.5031 93.4962C42.4987 92.5006 42.8381 91.505 42.544 90.4641L43.6301 91.5503C44.7954 92.7156 44.6709 93.6546 43.4377 94.8878C42.3064 96.0192 41.356 96.0644 40.5301 95.3743L39.3988 96.5057C40.8582 97.7615 42.5779 97.49 44.2976 95.7703C46.4132 93.6546 46.3341 91.9915 44.7954 90.4528L39.1612 84.8186L38.0298 85.95ZM40.9035 92.3535C39.6477 93.6093 38.5842 93.632 37.1473 92.1951C35.7105 90.7583 35.7331 89.6948 36.9889 88.439C38.1769 87.251 39.3196 87.2397 40.7111 88.6313C42.1027 90.0229 42.0914 91.1656 40.9035 92.3535ZM48.1138 85.8673C47.1408 86.8403 45.9868 87.1345 44.4707 85.7994L48.9283 81.3418C48.8039 81.1721 48.6681 81.0364 48.521 80.8893C46.9032 79.2714 44.697 78.9207 42.8981 80.7196C40.9635 82.6542 41.3821 84.9283 43.0339 86.5801C44.7083 88.2545 46.9032 88.7523 48.917 86.7385C50.9082 84.7473 50.4218 83.0163 49.7429 82.1338L48.7021 83.1747C49.132 83.9214 49.1433 84.8378 48.1138 85.8673ZM43.7467 81.5455C44.7536 80.5386 45.8397 80.4933 47.039 81.5794L43.6562 84.9622C42.5361 83.5706 42.7737 82.5185 43.7467 81.5455ZM49.8935 73.7242C48.8074 74.8103 48.7961 76.0435 49.2939 77.2201L48.0268 75.953L46.8954 77.0844L52.5523 82.7412L53.6836 81.6098L51.2964 79.2226C49.4976 77.4238 49.3957 76.1001 50.5045 74.9913C51.2172 74.2786 52.0431 74.0183 53.2311 75.2063L56.6591 78.6343L57.7905 77.503L54.2606 73.9731C52.7785 72.491 51.3983 72.2195 49.8935 73.7242ZM55.9809 73.6557C57.6667 75.3414 59.9973 75.6582 61.9093 73.7462C63.6969 71.9586 63.5046 69.9335 62.294 68.6324L61.2305 69.6959C61.9319 70.601 62.1017 71.7437 61.0042 72.8411C59.9068 73.9385 58.7075 74.0969 57.1236 72.513C55.5736 70.963 55.7094 69.7185 56.8182 68.6098C57.893 67.535 58.9678 67.7273 59.8163 68.3948L60.8798 67.3313C59.4995 66.0642 57.6327 65.985 55.8678 67.7499C53.9671 69.6506 54.2952 71.9699 55.9809 73.6557ZM67.5229 66.4582C66.5499 67.4312 65.3959 67.7253 63.8799 66.3903L68.3375 61.9327C68.213 61.763 68.0772 61.6273 67.9302 61.4802C66.3123 59.8623 64.1061 59.5116 62.3072 61.3105C60.3726 63.2451 60.7912 65.5192 62.443 67.171C64.1174 68.8454 66.3123 69.3432 68.3261 67.3294C70.3174 65.3382 69.8309 63.6072 69.152 62.7247L68.1112 63.7655C68.5411 64.5123 68.5524 65.4287 67.5229 66.4582ZM63.1558 62.1364C64.1627 61.1295 65.2488 61.0842 66.4481 62.1703L63.0653 65.5531C61.9452 64.1615 62.1828 63.1094 63.1558 62.1364Z" fill="#007CC2"/>
<path d="M200.913 112.269L197.655 115.528L205.179 123.051L208.437 119.793C210.903 117.327 210.247 114.521 208.2 112.473C206.174 110.448 203.38 109.803 200.913 112.269ZM207.272 119.08L205.405 120.947L199.759 115.301L201.626 113.435C203.493 111.568 205.1 111.817 206.978 113.695C208.856 115.573 209.139 117.213 207.272 119.08ZM206.504 108.716L207.929 107.29L206.911 106.272L205.485 107.697L206.504 108.716ZM213.156 115.074L214.287 113.943L208.631 108.286L207.499 109.417L213.156 115.074ZM214.28 102.636L217.165 109.051L210.75 106.166L209.585 107.331L217.391 110.839L218.885 109.345L215.378 101.539L214.28 102.636ZM223.663 103.255C222.69 104.228 221.536 104.522 220.02 103.187L224.478 98.7291C224.353 98.5594 224.217 98.4236 224.07 98.2765C222.452 96.6587 220.246 96.3079 218.447 98.1068C216.513 100.041 216.931 102.316 218.583 103.967C220.258 105.642 222.452 106.14 224.466 104.126C226.458 102.134 225.971 100.403 225.292 99.521L224.251 100.562C224.681 101.309 224.693 102.225 223.663 103.255ZM219.296 98.9327C220.303 97.9258 221.389 97.8805 222.588 98.9667L219.205 102.349C218.085 100.958 218.323 99.9057 219.296 98.9327ZM225.477 91.2585C224.425 92.3107 224.436 93.5439 224.934 94.7205L223.565 93.3515L222.445 94.4716L228.102 100.128L229.233 98.9971L227.072 96.8361C225.533 95.2975 224.945 93.9851 226.461 92.4691L226.744 92.1862L225.646 91.0888L225.477 91.2585ZM230.966 85.95L231.871 86.8551C230.831 86.5609 229.778 86.8438 228.783 87.8394C226.961 89.6609 227.278 91.6747 228.941 93.3378C230.604 95.0009 232.618 95.3177 234.44 93.4962C235.435 92.5006 235.775 91.505 235.48 90.4641L236.567 91.5503C237.732 92.7156 237.607 93.6546 236.374 94.8878C235.243 96.0192 234.293 96.0644 233.467 95.3743L232.335 96.5057C233.795 97.7615 235.514 97.49 237.234 95.7703C239.35 93.6546 239.271 91.9915 237.732 90.4528L232.098 84.8186L230.966 85.95ZM233.84 92.3535C232.584 93.6093 231.521 93.632 230.084 92.1951C228.647 90.7583 228.67 89.6948 229.925 88.439C231.113 87.251 232.256 87.2397 233.648 88.6313C235.039 90.0229 235.028 91.1656 233.84 92.3535ZM241.05 85.8673C240.077 86.8403 238.923 87.1345 237.407 85.7994L241.865 81.3418C241.74 81.1721 241.605 81.0364 241.458 80.8893C239.84 79.2714 237.634 78.9207 235.835 80.7196C233.9 82.6542 234.319 84.9283 235.97 86.5801C237.645 88.2545 239.84 88.7523 241.854 86.7385C243.845 84.7473 243.358 83.0163 242.679 82.1338L241.639 83.1747C242.069 83.9214 242.08 84.8378 241.05 85.8673ZM236.683 81.5455C237.69 80.5386 238.776 80.4933 239.975 81.5794L236.593 84.9622C235.473 83.5706 235.71 82.5185 236.683 81.5455ZM242.83 73.7242C241.744 74.8103 241.733 76.0435 242.23 77.2201L240.963 75.953L239.832 77.0844L245.489 82.7412L246.62 81.6098L244.233 79.2226C242.434 77.4238 242.332 76.1001 243.441 74.9913C244.154 74.2786 244.98 74.0183 246.168 75.2063L249.596 78.6343L250.727 77.503L247.197 73.9731C245.715 72.491 244.335 72.2195 242.83 73.7242ZM248.917 73.6557C250.603 75.3414 252.934 75.6582 254.846 73.7462C256.633 71.9586 256.441 69.9335 255.231 68.6324L254.167 69.6959C254.868 70.601 255.038 71.7437 253.941 72.8411C252.843 73.9385 251.644 74.0969 250.06 72.513C248.51 70.963 248.646 69.7185 249.755 68.6098C250.829 67.535 251.904 67.7273 252.753 68.3948L253.816 67.3313C252.436 66.0642 250.569 65.985 248.804 67.7499C246.904 69.6506 247.232 71.9699 248.917 73.6557ZM260.459 66.4582C259.486 67.4312 258.332 67.7253 256.816 66.3903L261.274 61.9327C261.15 61.763 261.014 61.6273 260.867 61.4802C259.249 59.8623 257.043 59.5116 255.244 61.3105C253.309 63.2451 253.728 65.5192 255.38 67.171C257.054 68.8454 259.249 69.3432 261.263 67.3294C263.254 65.3382 262.767 63.6072 262.089 62.7247L261.048 63.7655C261.478 64.5123 261.489 65.4287 260.459 66.4582ZM256.092 62.1364C257.099 61.1295 258.185 61.0842 259.385 62.1703L256.002 65.5531C254.882 64.1615 255.119 63.1094 256.092 62.1364Z" fill="#007CC2"/>
<path d="M116.569 67.5472C119.058 70.0362 121.321 69.8778 123.357 68.0903L122.158 66.891C120.71 68.1355 119.137 68.1921 117.508 66.5629C115.721 64.7753 115.992 62.9651 117.95 61.0079C119.907 59.0506 121.751 58.813 123.539 60.6006C125.1 62.1619 125.077 63.6327 123.934 65.0695L125.122 66.2574C126.819 64.221 126.921 62.06 124.523 59.6615C121.864 57.0028 118.934 57.5798 116.728 59.786C114.488 62.0261 113.911 64.8885 116.569 67.5472ZM124.069 75.0248C126.038 76.9933 128.346 76.5861 130.009 74.9229C131.65 73.2825 132.057 70.9745 130.088 69.0059C128.12 67.0373 125.823 67.4333 124.171 69.0851C122.497 70.7595 122.101 73.0562 124.069 75.0248ZM125.303 70.2391C126.807 68.7343 127.961 68.6891 129.183 69.911C130.405 71.1328 130.36 72.2868 128.855 73.7916C127.35 75.2963 126.196 75.3415 124.975 74.1197C123.753 72.8978 123.798 71.7438 125.303 70.2391ZM137.325 76.243C136.239 75.1569 135.006 75.1456 133.83 75.6434L135.097 74.3763L133.965 73.2449L128.308 78.9017L129.44 80.0331L131.827 77.6459C133.626 75.847 134.95 75.7452 136.058 76.854C136.771 77.5667 137.031 78.3926 135.843 79.5806L132.415 83.0086L133.547 84.14L137.077 80.6101C138.559 79.128 138.83 77.7477 137.325 76.243ZM144.624 83.9038L138.209 86.7888L141.094 80.3739L139.929 79.2086L136.422 87.0151L137.915 88.5085L145.722 85.0012L144.624 83.9038ZM144.006 93.2868C143.033 92.3138 142.739 91.1598 144.074 89.6438L148.531 94.1014C148.701 93.9769 148.837 93.8411 148.984 93.6941C150.602 92.0762 150.953 89.87 149.154 88.0711C147.219 86.1365 144.945 86.5551 143.293 88.2069C141.619 89.8813 141.121 92.0762 143.135 94.09C145.126 96.0813 146.857 95.5948 147.739 94.9159L146.699 93.8751C145.952 94.305 145.035 94.3163 144.006 93.2868ZM148.328 88.9197C149.335 89.9266 149.38 91.0127 148.294 92.212L144.911 88.8292C146.303 87.7091 147.355 87.9467 148.328 88.9197ZM156.002 95.1005C154.95 94.0483 153.717 94.0596 152.54 94.5574L153.909 93.1885L152.789 92.0684L147.132 97.7253L148.263 98.8566L150.424 96.6957C151.963 95.1571 153.275 94.5688 154.791 96.0848L155.074 96.3676L156.172 95.2702L156.002 95.1005ZM161.31 100.59L160.405 101.495C160.7 100.454 160.417 99.4021 159.421 98.4065C157.6 96.585 155.586 96.9018 153.923 98.5649C152.26 100.228 151.943 102.242 153.764 104.063C154.76 105.059 155.755 105.398 156.796 105.104L155.71 106.19C154.545 107.356 153.606 107.231 152.373 105.998C151.241 104.867 151.196 103.916 151.886 103.09L150.755 101.959C149.499 103.418 149.77 105.138 151.49 106.858C153.606 108.973 155.269 108.894 156.808 107.356L162.442 101.721L161.31 100.59ZM154.907 103.464C153.651 102.208 153.628 101.144 155.065 99.7076C156.502 98.2707 157.566 98.2933 158.821 99.5492C160.009 100.737 160.021 101.88 158.629 103.271C157.238 104.663 156.095 104.652 154.907 103.464ZM161.393 110.674C160.42 109.701 160.126 108.547 161.461 107.031L165.919 111.489C166.088 111.364 166.224 111.228 166.371 111.081C167.989 109.463 168.34 107.257 166.541 105.458C164.606 103.524 162.332 103.942 160.68 105.594C159.006 107.269 158.508 109.463 160.522 111.477C162.513 113.468 164.244 112.982 165.127 112.303L164.086 111.262C163.339 111.692 162.423 111.704 161.393 110.674ZM165.715 106.307C166.722 107.314 166.767 108.4 165.681 109.599L162.298 106.216C163.69 105.096 164.742 105.334 165.715 106.307ZM173.536 112.454C172.45 111.368 171.217 111.356 170.04 111.854L171.307 110.587L170.176 109.456L164.519 115.113L165.651 116.244L168.038 113.857C169.837 112.058 171.16 111.956 172.269 113.065C172.982 113.777 173.242 114.603 172.054 115.791L168.626 119.219L169.757 120.351L173.287 116.821C174.769 115.339 175.041 113.959 173.536 112.454ZM173.605 118.541C171.919 120.227 171.602 122.558 173.514 124.47C175.302 126.257 177.327 126.065 178.628 124.854L177.565 123.791C176.659 124.492 175.517 124.662 174.419 123.564C173.322 122.467 173.164 121.268 174.747 119.684C176.297 118.134 177.542 118.27 178.651 119.378C179.725 120.453 179.533 121.528 178.866 122.377L179.929 123.44C181.196 122.06 181.275 120.193 179.511 118.428C177.61 116.527 175.291 116.855 173.605 118.541ZM180.802 130.083C179.829 129.11 179.535 127.956 180.87 126.44L185.328 130.898C185.497 130.773 185.633 130.637 185.78 130.49C187.398 128.873 187.749 126.666 185.95 124.867C184.015 122.933 181.741 123.351 180.089 125.003C178.415 126.678 177.917 128.873 179.931 130.886C181.922 132.878 183.653 132.391 184.536 131.712L183.495 130.671C182.748 131.101 181.832 131.113 180.802 130.083ZM185.124 125.716C186.131 126.723 186.176 127.809 185.09 129.008L181.707 125.626C183.099 124.505 184.151 124.743 185.124 125.716Z" fill="#007CC2"/>
<path d="M161.768 2.36L159.672 11.992L157.32 2.36H154.712L152.36 11.992L150.264 2.36H148.6L150.92 13H153.736L156.008 3.672L158.28 13H161.096L163.416 2.36H161.768ZM167.882 12.072C166.506 12.072 165.482 11.464 165.354 9.448H171.658C171.69 9.24 171.69 9.048 171.69 8.84C171.69 6.552 170.378 4.744 167.834 4.744C165.098 4.744 163.786 6.648 163.786 8.984C163.786 11.352 164.986 13.256 167.834 13.256C170.65 13.256 171.53 11.688 171.674 10.584H170.202C169.978 11.416 169.338 12.072 167.882 12.072ZM167.85 5.928C169.274 5.928 170.074 6.664 170.154 8.28H165.37C165.562 6.504 166.474 5.928 167.85 5.928ZM179.708 13.208C181.404 13.208 182.284 12.2 182.604 11.192C182.604 11.832 182.636 12.376 182.7 13H184.156C184.092 12.248 184.076 11.768 184.076 11.176V7.208C184.076 5.736 182.988 4.728 180.78 4.728C178.508 4.728 177.244 5.8 177.228 7.496H178.828C178.908 6.488 179.532 5.96 180.844 5.96C182.22 5.96 182.604 6.456 182.604 7.176C182.604 7.736 182.252 7.976 181.484 8.104L179.484 8.44C177.692 8.744 177.052 9.576 177.052 10.856C177.052 12.328 178.076 13.208 179.708 13.208ZM180.044 11.976C179.212 11.976 178.652 11.56 178.652 10.792C178.652 10.056 179.084 9.672 180.076 9.448L181.18 9.192C181.66 9.08 182.172 8.952 182.604 8.632V9.112C182.604 10.712 181.724 11.976 180.044 11.976ZM190.488 4.872C189 4.872 188.136 5.752 187.656 6.936V5L186.072 5V13H187.672V9.944C187.672 7.768 188.184 6.424 190.328 6.424H190.728V4.872H190.488ZM195.533 12.072C194.157 12.072 193.133 11.464 193.005 9.448L199.309 9.448C199.341 9.24 199.341 9.048 199.341 8.84C199.341 6.552 198.029 4.744 195.485 4.744C192.749 4.744 191.437 6.648 191.437 8.984C191.437 11.352 192.637 13.256 195.485 13.256C198.301 13.256 199.181 11.688 199.325 10.584H197.853C197.629 11.416 196.989 12.072 195.533 12.072ZM195.501 5.928C196.925 5.928 197.725 6.664 197.805 8.28L193.021 8.28C193.213 6.504 194.125 5.928 195.501 5.928ZM164.822 21.744C163.286 21.744 162.406 22.608 161.926 23.792V18.8H160.326V30H161.926V26.624C161.926 24.08 162.79 23.072 164.358 23.072C165.366 23.072 166.134 23.472 166.134 25.152V30H167.734V25.008C167.734 22.912 166.95 21.744 164.822 21.744ZM173.271 29.072C171.895 29.072 170.871 28.464 170.743 26.448H177.047C177.079 26.24 177.079 26.048 177.079 25.84C177.079 23.552 175.767 21.744 173.223 21.744C170.487 21.744 169.175 23.648 169.175 25.984C169.175 28.352 170.375 30.256 173.223 30.256C176.039 30.256 176.919 28.688 177.063 27.584H175.591C175.367 28.416 174.727 29.072 173.271 29.072ZM173.239 22.928C174.663 22.928 175.463 23.664 175.543 25.28H170.759C170.951 23.504 171.863 22.928 173.239 22.928ZM183.036 21.872C181.548 21.872 180.684 22.752 180.204 23.936V22L178.62 22V30L180.22 30V26.944C180.22 24.768 180.732 23.424 182.876 23.424H183.276V21.872H183.036ZM188.08 29.072C186.704 29.072 185.68 28.464 185.552 26.448H191.856C191.888 26.24 191.888 26.048 191.888 25.84C191.888 23.552 190.576 21.744 188.032 21.744C185.296 21.744 183.984 23.648 183.984 25.984C183.984 28.352 185.184 30.256 188.032 30.256C190.848 30.256 191.728 28.688 191.872 27.584H190.4C190.176 28.416 189.536 29.072 188.08 29.072ZM188.048 22.928C189.472 22.928 190.272 23.664 190.352 25.28H185.568C185.76 23.504 186.672 22.928 188.048 22.928Z" fill="#007CC2"/>
<path d="M304.751 68.5472C307.24 71.0362 309.503 70.8778 311.539 69.0903L310.34 67.891C308.892 69.1355 307.319 69.1921 305.69 67.5629C303.902 65.7753 304.174 63.9651 306.131 62.0079C308.088 60.0506 309.933 59.813 311.72 61.6006C313.281 63.1619 313.259 64.6327 312.116 66.0695L313.304 67.2574C315.001 65.221 315.103 63.06 312.704 60.6615C310.046 58.0028 307.115 58.5798 304.909 60.786C302.669 63.0261 302.092 65.8885 304.751 68.5472ZM312.251 76.0248C314.22 77.9933 316.528 77.5861 318.191 75.9229C319.831 74.2825 320.239 71.9745 318.27 70.0059C316.301 68.0373 314.005 68.4333 312.353 70.0851C310.678 71.7595 310.283 74.0562 312.251 76.0248ZM313.484 71.2391C314.989 69.7343 316.143 69.6891 317.365 70.911C318.587 72.1328 318.542 73.2868 317.037 74.7916C315.532 76.2963 314.378 76.3415 313.156 75.1197C311.934 73.8978 311.98 72.7438 313.484 71.2391ZM325.507 77.243C324.421 76.1569 323.188 76.1456 322.011 76.6434L323.278 75.3763L322.147 74.2449L316.49 79.9017L317.621 81.0331L320.009 78.6459C321.808 76.847 323.131 76.7452 324.24 77.854C324.953 78.5667 325.213 79.3926 324.025 80.5806L320.597 84.0086L321.728 85.14L325.258 81.6101C326.74 80.128 327.012 78.7477 325.507 77.243ZM332.806 84.9038L326.391 87.7888L329.276 81.3739L328.111 80.2086L324.603 88.0151L326.097 89.5085L333.903 86.0012L332.806 84.9038ZM332.188 94.2868C331.215 93.3138 330.92 92.1598 332.255 90.6438L336.713 95.1014C336.883 94.9769 337.018 94.8411 337.166 94.6941C338.783 93.0762 339.134 90.87 337.335 89.0711C335.401 87.1365 333.127 87.5551 331.475 89.2069C329.8 90.8813 329.303 93.0762 331.316 95.09C333.308 97.0813 335.039 96.5948 335.921 95.9159L334.88 94.8751C334.133 95.305 333.217 95.3163 332.188 94.2868ZM336.509 89.9197C337.516 90.9266 337.562 92.0127 336.475 93.212L333.093 89.8292C334.484 88.7091 335.536 88.9467 336.509 89.9197ZM344.184 96.1005C343.131 95.0483 341.898 95.0596 340.722 95.5574L342.091 94.1885L340.97 93.0684L335.314 98.7253L336.445 99.8566L338.606 97.6957C340.145 96.1571 341.457 95.5688 342.973 97.0848L343.256 97.3676L344.353 96.2702L344.184 96.1005ZM349.492 101.59L348.587 102.495C348.881 101.454 348.598 100.402 347.603 99.4065C345.781 97.585 343.767 97.9018 342.104 99.5649C340.441 101.228 340.124 103.242 341.946 105.063C342.941 106.059 343.937 106.398 344.978 106.104L343.892 107.19C342.727 108.356 341.787 108.231 340.554 106.998C339.423 105.867 339.378 104.916 340.068 104.09L338.936 102.959C337.681 104.418 337.952 106.138 339.672 107.858C341.787 109.973 343.451 109.894 344.989 108.356L350.623 102.721L349.492 101.59ZM343.089 104.464C341.833 103.208 341.81 102.144 343.247 100.708C344.684 99.2707 345.747 99.2933 347.003 100.549C348.191 101.737 348.202 102.88 346.811 104.271C345.419 105.663 344.276 105.652 343.089 104.464ZM349.575 111.674C348.602 110.701 348.308 109.547 349.643 108.031L354.1 112.489C354.27 112.364 354.406 112.228 354.553 112.081C356.171 110.463 356.521 108.257 354.722 106.458C352.788 104.524 350.514 104.942 348.862 106.594C347.188 108.269 346.69 110.463 348.704 112.477C350.695 114.468 352.426 113.982 353.308 113.303L352.267 112.262C351.521 112.692 350.604 112.704 349.575 111.674ZM353.897 107.307C354.904 108.314 354.949 109.4 353.863 110.599L350.48 107.216C351.871 106.096 352.924 106.334 353.897 107.307ZM361.718 113.454C360.632 112.368 359.399 112.356 358.222 112.854L359.489 111.587L358.358 110.456L352.701 116.113L353.832 117.244L356.219 114.857C358.018 113.058 359.342 112.956 360.451 114.065C361.164 114.777 361.424 115.603 360.236 116.791L356.808 120.219L357.939 121.351L361.469 117.821C362.951 116.339 363.223 114.959 361.718 113.454ZM361.786 119.541C360.101 121.227 359.784 123.558 361.696 125.47C363.483 127.257 365.509 127.065 366.81 125.854L365.746 124.791C364.841 125.492 363.698 125.662 362.601 124.564C361.504 123.467 361.345 122.268 362.929 120.684C364.479 119.134 365.724 119.27 366.832 120.378C367.907 121.453 367.715 122.528 367.047 123.377L368.111 124.44C369.378 123.06 369.457 121.193 367.692 119.428C365.791 117.527 363.472 117.855 361.786 119.541ZM368.984 131.083C368.011 130.11 367.717 128.956 369.052 127.44L373.509 131.898C373.679 131.773 373.815 131.637 373.962 131.49C375.58 129.873 375.93 127.666 374.132 125.867C372.197 123.933 369.923 124.351 368.271 126.003C366.597 127.678 366.099 129.873 368.113 131.886C370.104 133.878 371.835 133.391 372.717 132.712L371.677 131.671C370.93 132.101 370.013 132.113 368.984 131.083ZM373.306 126.716C374.313 127.723 374.358 128.809 373.272 130.008L369.889 126.626C371.281 125.505 372.333 125.743 373.306 126.716Z" fill="#007CC2"/>
<path d="M111.807 152.737C112.927 152.737 113.86 152.977 114.607 153.457C115.364 153.926 115.924 154.561 116.287 155.361C116.649 156.161 116.831 157.052 116.831 158.033C116.831 159.025 116.649 159.926 116.287 160.737C115.924 161.537 115.364 162.177 114.607 162.657C113.86 163.137 112.927 163.377 111.807 163.377H106.943V152.737H111.807ZM111.391 161.745C112.564 161.745 113.407 161.441 113.919 160.833C114.441 160.225 114.703 159.292 114.703 158.033C114.703 156.774 114.441 155.852 113.919 155.265C113.407 154.668 112.564 154.369 111.391 154.369H108.991V161.745H111.391ZM120.317 155.377V163.377H118.333V155.377H120.317ZM120.477 152.737V154.257H118.173V152.737H120.477ZM123.565 160.737C123.597 161.196 123.783 161.569 124.125 161.857C124.477 162.145 124.978 162.289 125.629 162.289C126.215 162.289 126.626 162.198 126.861 162.017C127.106 161.836 127.229 161.569 127.229 161.217C127.229 160.929 127.138 160.7 126.957 160.529C126.775 160.348 126.477 160.23 126.061 160.177L124.173 159.905C123.447 159.809 122.893 159.569 122.509 159.185C122.135 158.79 121.949 158.278 121.949 157.649C121.949 156.828 122.258 156.198 122.877 155.761C123.495 155.324 124.343 155.105 125.421 155.105C126.477 155.105 127.325 155.334 127.965 155.793C128.605 156.241 128.957 156.87 129.021 157.681H127.133C127.09 157.308 126.919 157.009 126.621 156.785C126.333 156.561 125.922 156.449 125.389 156.449C124.855 156.449 124.461 156.54 124.205 156.721C123.949 156.902 123.821 157.148 123.821 157.457C123.821 157.969 124.167 158.273 124.861 158.369L126.573 158.593C127.511 158.721 128.173 158.988 128.557 159.393C128.951 159.798 129.149 160.353 129.149 161.057C129.149 162.774 127.959 163.633 125.581 163.633C124.29 163.633 123.33 163.366 122.701 162.833C122.071 162.289 121.751 161.59 121.741 160.737H123.565ZM130.275 159.377C130.275 158.588 130.429 157.873 130.739 157.233C131.059 156.582 131.533 156.07 132.163 155.697C132.803 155.313 133.587 155.121 134.515 155.121C135.773 155.121 136.744 155.436 137.427 156.065C138.12 156.684 138.488 157.494 138.531 158.497H136.627C136.563 157.942 136.365 157.505 136.035 157.185C135.704 156.854 135.213 156.689 134.563 156.689C133.816 156.689 133.245 156.897 132.851 157.313C132.456 157.729 132.259 158.417 132.259 159.377C132.259 160.348 132.451 161.041 132.835 161.457C133.219 161.862 133.784 162.065 134.531 162.065C135.192 162.065 135.699 161.894 136.051 161.553C136.413 161.212 136.627 160.758 136.691 160.193H138.595C138.573 160.822 138.408 161.398 138.099 161.921C137.789 162.433 137.331 162.849 136.723 163.169C136.125 163.478 135.4 163.633 134.547 163.633C133.608 163.633 132.819 163.446 132.179 163.073C131.539 162.689 131.059 162.177 130.739 161.537C130.429 160.886 130.275 160.166 130.275 159.377ZM143.873 163.633C142.913 163.633 142.113 163.446 141.473 163.073C140.833 162.689 140.359 162.177 140.049 161.537C139.751 160.886 139.601 160.161 139.601 159.361C139.601 158.572 139.751 157.857 140.049 157.217C140.359 156.577 140.833 156.07 141.473 155.697C142.113 155.313 142.913 155.121 143.873 155.121C144.833 155.121 145.633 155.313 146.273 155.697C146.913 156.081 147.388 156.593 147.697 157.233C148.007 157.873 148.161 158.582 148.161 159.361C148.161 160.15 148.007 160.87 147.697 161.521C147.388 162.161 146.913 162.673 146.273 163.057C145.633 163.441 144.833 163.633 143.873 163.633ZM141.585 159.377C141.585 160.337 141.767 161.025 142.129 161.441C142.492 161.857 143.073 162.065 143.873 162.065C144.673 162.065 145.255 161.857 145.617 161.441C145.98 161.025 146.161 160.337 146.161 159.377C146.161 158.417 145.98 157.729 145.617 157.313C145.255 156.897 144.673 156.689 143.873 156.689C143.073 156.689 142.492 156.897 142.129 157.313C141.767 157.729 141.585 158.417 141.585 159.377ZM157.087 155.377L154.175 163.377H151.455L148.543 155.377H150.575L152.879 161.761L155.183 155.377H157.087ZM161.713 162.225C162.812 162.225 163.494 161.804 163.761 160.961H165.633C165.526 161.686 165.158 162.316 164.529 162.849C163.9 163.372 162.94 163.633 161.649 163.633C160.241 163.633 159.196 163.233 158.513 162.433C157.83 161.633 157.489 160.609 157.489 159.361C157.489 158.561 157.638 157.841 157.937 157.201C158.246 156.561 158.71 156.054 159.329 155.681C159.958 155.308 160.732 155.121 161.649 155.121C162.545 155.121 163.292 155.308 163.889 155.681C164.497 156.044 164.945 156.54 165.233 157.169C165.521 157.788 165.665 158.492 165.665 159.281C165.665 159.505 165.649 159.713 165.617 159.905H159.409C159.473 160.748 159.702 161.345 160.097 161.697C160.492 162.049 161.03 162.225 161.713 162.225ZM161.681 156.513C161.02 156.513 160.502 156.673 160.129 156.993C159.766 157.302 159.537 157.836 159.441 158.593H163.761C163.686 157.206 162.993 156.513 161.681 156.513ZM172.019 155.249V157.169H171.427C170.531 157.169 169.907 157.425 169.555 157.937C169.203 158.438 169.027 159.217 169.027 160.273V163.377H167.043V155.377H168.979V157.233C169.448 155.91 170.333 155.249 171.635 155.249H172.019Z" fill="#282A36"/>
<path d="M209.819 163.649C208.678 163.649 207.723 163.409 206.955 162.929C206.187 162.438 205.617 161.772 205.243 160.929C204.881 160.086 204.699 159.126 204.699 158.049C204.699 156.972 204.897 156.012 205.291 155.169C205.697 154.326 206.315 153.665 207.147 153.185C207.99 152.694 209.035 152.449 210.283 152.449C211.937 152.449 213.185 152.796 214.027 153.489C214.87 154.172 215.355 155.142 215.483 156.401H213.403C213.307 155.633 213.003 155.057 212.491 154.673C211.979 154.278 211.233 154.081 210.251 154.081C209.089 154.081 208.225 154.412 207.659 155.073C207.105 155.724 206.827 156.716 206.827 158.049C206.827 159.372 207.094 160.364 207.627 161.025C208.171 161.686 209.03 162.017 210.203 162.017C212.166 162.017 213.265 161.105 213.499 159.281H209.355V157.873H215.467V163.377H213.691V161.217C213.435 161.964 212.982 162.556 212.331 162.993C211.691 163.43 210.854 163.649 209.819 163.649ZM221.231 162.225C222.33 162.225 223.013 161.804 223.279 160.961H225.151C225.045 161.686 224.677 162.316 224.047 162.849C223.418 163.372 222.458 163.633 221.167 163.633C219.759 163.633 218.714 163.233 218.031 162.433C217.349 161.633 217.007 160.609 217.007 159.361C217.007 158.561 217.157 157.841 217.455 157.201C217.765 156.561 218.229 156.054 218.847 155.681C219.477 155.308 220.25 155.121 221.167 155.121C222.063 155.121 222.81 155.308 223.407 155.681C224.015 156.044 224.463 156.54 224.751 157.169C225.039 157.788 225.183 158.492 225.183 159.281C225.183 159.505 225.167 159.713 225.135 159.905H218.927C218.991 160.748 219.221 161.345 219.615 161.697C220.01 162.049 220.549 162.225 221.231 162.225ZM221.199 156.513C220.538 156.513 220.021 156.673 219.647 156.993C219.285 157.302 219.055 157.836 218.959 158.593H223.279C223.205 157.206 222.511 156.513 221.199 156.513ZM231.425 155.121C232.46 155.121 233.206 155.404 233.665 155.969C234.134 156.524 234.369 157.345 234.369 158.433V163.377H232.385V158.673C232.385 157.98 232.241 157.489 231.953 157.201C231.676 156.902 231.27 156.753 230.737 156.753C230.012 156.753 229.462 157.004 229.089 157.505C228.726 157.996 228.545 158.785 228.545 159.873V163.377H226.561V155.377H228.545V157.073C229.11 155.772 230.07 155.121 231.425 155.121ZM239.916 162.225C241.014 162.225 241.697 161.804 241.964 160.961H243.836C243.729 161.686 243.361 162.316 242.732 162.849C242.102 163.372 241.142 163.633 239.852 163.633C238.444 163.633 237.398 163.233 236.716 162.433C236.033 161.633 235.692 160.609 235.692 159.361C235.692 158.561 235.841 157.841 236.14 157.201C236.449 156.561 236.913 156.054 237.532 155.681C238.161 155.308 238.934 155.121 239.852 155.121C240.748 155.121 241.494 155.308 242.092 155.681C242.7 156.044 243.148 156.54 243.436 157.169C243.724 157.788 243.868 158.492 243.868 159.281C243.868 159.505 243.852 159.713 243.82 159.905H237.612C237.676 160.748 237.905 161.345 238.3 161.697C238.694 162.049 239.233 162.225 239.916 162.225ZM239.884 156.513C239.222 156.513 238.705 156.673 238.332 156.993C237.969 157.302 237.74 157.836 237.644 158.593H241.964C241.889 157.206 241.196 156.513 239.884 156.513ZM250.221 155.249V157.169H249.629C248.733 157.169 248.109 157.425 247.757 157.937C247.405 158.438 247.229 159.217 247.229 160.273V163.377H245.245V155.377H247.181V157.233C247.651 155.91 248.536 155.249 249.837 155.249H250.221ZM253.676 163.585C252.865 163.585 252.22 163.377 251.74 162.961C251.26 162.534 251.02 161.964 251.02 161.249C251.02 160.577 251.212 160.038 251.596 159.633C251.98 159.228 252.636 158.95 253.564 158.801L255.5 158.465C255.884 158.401 256.156 158.305 256.316 158.177C256.476 158.049 256.556 157.857 256.556 157.601C256.556 157.26 256.438 156.998 256.204 156.817C255.969 156.636 255.558 156.545 254.972 156.545C253.82 156.545 253.212 157.004 253.148 157.921H251.196C251.217 157.057 251.553 156.374 252.204 155.873C252.854 155.361 253.761 155.105 254.924 155.105C256.054 155.105 256.913 155.34 257.5 155.809C258.086 156.268 258.38 156.902 258.38 157.713V161.425C258.38 162.001 258.412 162.652 258.476 163.377H256.716C256.652 162.801 256.62 162.214 256.62 161.617C256.428 162.193 256.086 162.668 255.596 163.041C255.105 163.404 254.465 163.585 253.676 163.585ZM254.252 162.161C254.977 162.161 255.542 161.921 255.948 161.441C256.353 160.961 256.556 160.326 256.556 159.537V159.105C256.374 159.244 256.177 159.35 255.964 159.425C255.761 159.5 255.5 159.574 255.18 159.649L254.3 159.857C253.83 159.974 253.494 160.129 253.292 160.321C253.089 160.502 252.988 160.758 252.988 161.089C252.988 161.43 253.1 161.697 253.324 161.889C253.558 162.07 253.868 162.161 254.252 162.161ZM263.477 163.377C262.795 163.377 262.256 163.281 261.861 163.089C261.477 162.897 261.205 162.614 261.045 162.241C260.885 161.868 260.805 161.372 260.805 160.753V156.881H259.317V155.905L260.965 155.281L261.781 153.521H262.789V155.377H265.221V156.881H262.789V161.793H265.029V163.377H263.477ZM270.144 162.225C271.243 162.225 271.925 161.804 272.192 160.961H274.064C273.957 161.686 273.589 162.316 272.96 162.849C272.331 163.372 271.371 163.633 270.08 163.633C268.672 163.633 267.627 163.233 266.944 162.433C266.261 161.633 265.92 160.609 265.92 159.361C265.92 158.561 266.069 157.841 266.368 157.201C266.677 156.561 267.141 156.054 267.76 155.681C268.389 155.308 269.163 155.121 270.08 155.121C270.976 155.121 271.723 155.308 272.32 155.681C272.928 156.044 273.376 156.54 273.664 157.169C273.952 157.788 274.096 158.492 274.096 159.281C274.096 159.505 274.08 159.713 274.048 159.905H267.84C267.904 160.748 268.133 161.345 268.528 161.697C268.923 162.049 269.461 162.225 270.144 162.225ZM270.112 156.513C269.451 156.513 268.933 156.673 268.56 156.993C268.197 157.302 267.968 157.836 267.872 158.593H272.192C272.117 157.206 271.424 156.513 270.112 156.513Z" fill="#282A36"/>
<path d="M313.127 161.569C313.127 161.942 313.143 162.252 313.175 162.497C313.217 162.732 313.271 163.025 313.335 163.377H311.319C311.18 162.982 311.111 162.396 311.111 161.617V160.913C311.111 159.654 310.444 159.025 309.111 159.025H306.663V163.377H304.615V152.737H309.975C311.095 152.737 311.948 152.998 312.535 153.521C313.132 154.033 313.431 154.737 313.431 155.633C313.431 156.348 313.233 156.945 312.839 157.425C312.444 157.905 311.927 158.225 311.287 158.385C311.895 158.556 312.353 158.812 312.663 159.153C312.972 159.484 313.127 160.001 313.127 160.705V161.569ZM309.655 157.537C310.252 157.537 310.673 157.398 310.919 157.121C311.175 156.844 311.303 156.428 311.303 155.873C311.303 154.849 310.737 154.337 309.607 154.337H306.663V157.537H309.655ZM318.846 162.225C319.944 162.225 320.627 161.804 320.894 160.961H322.766C322.659 161.686 322.291 162.316 321.662 162.849C321.032 163.372 320.072 163.633 318.782 163.633C317.374 163.633 316.328 163.233 315.646 162.433C314.963 161.633 314.622 160.609 314.622 159.361C314.622 158.561 314.771 157.841 315.07 157.201C315.379 156.561 315.843 156.054 316.462 155.681C317.091 155.308 317.864 155.121 318.782 155.121C319.678 155.121 320.424 155.308 321.022 155.681C321.63 156.044 322.078 156.54 322.366 157.169C322.654 157.788 322.798 158.492 322.798 159.281C322.798 159.505 322.782 159.713 322.75 159.905H316.542C316.606 160.748 316.835 161.345 317.23 161.697C317.624 162.049 318.163 162.225 318.846 162.225ZM318.814 156.513C318.152 156.513 317.635 156.673 317.262 156.993C316.899 157.302 316.67 157.836 316.574 158.593H320.894C320.819 157.206 320.126 156.513 318.814 156.513ZM323.411 156.881V155.905L324.803 155.329V154.369C324.803 153.644 325.006 153.1 325.411 152.737C325.827 152.364 326.51 152.177 327.459 152.177H329.347V153.633H326.563V155.377H328.899V156.881H326.787V163.377H324.803V156.881H323.411ZM332.361 155.377V163.377H330.377V155.377H332.361ZM332.521 152.737V154.257H330.217V152.737H332.521ZM339.083 155.121C340.118 155.121 340.864 155.404 341.323 155.969C341.792 156.524 342.027 157.345 342.027 158.433V163.377H340.043V158.673C340.043 157.98 339.899 157.489 339.611 157.201C339.334 156.902 338.928 156.753 338.395 156.753C337.67 156.753 337.12 157.004 336.747 157.505C336.384 157.996 336.203 158.785 336.203 159.873V163.377H334.219V155.377H336.203V157.073C336.768 155.772 337.728 155.121 339.083 155.121ZM347.574 162.225C348.673 162.225 349.355 161.804 349.622 160.961H351.494C351.387 161.686 351.019 162.316 350.39 162.849C349.761 163.372 348.801 163.633 347.51 163.633C346.102 163.633 345.057 163.233 344.374 162.433C343.691 161.633 343.35 160.609 343.35 159.361C343.35 158.561 343.499 157.841 343.798 157.201C344.107 156.561 344.571 156.054 345.19 155.681C345.819 155.308 346.593 155.121 347.51 155.121C348.406 155.121 349.153 155.308 349.75 155.681C350.358 156.044 350.806 156.54 351.094 157.169C351.382 157.788 351.526 158.492 351.526 159.281C351.526 159.505 351.51 159.713 351.478 159.905H345.27C345.334 160.748 345.563 161.345 345.958 161.697C346.353 162.049 346.891 162.225 347.574 162.225ZM347.542 156.513C346.881 156.513 346.363 156.673 345.99 156.993C345.627 157.302 345.398 157.836 345.302 158.593H349.622C349.547 157.206 348.854 156.513 347.542 156.513Z" fill="#282A36"/>
<line opacity="0.2" x1="283.613" y1="63.8164" x2="283.613" y2="251.827" stroke="#282A36"/>
<rect opacity="0.1" x="167" y="48" width="17" height="204" rx="2.96339" fill="#007CC2"/>
<path d="M25.6321 301.174V288.37H27.8981V299.766C27.8981 300.895 27.6341 301.717 27.1061 302.23C26.5928 302.743 25.6908 303 24.4001 303H20.5061V301.174H25.6321ZM33.8542 303.286C32.7249 303.286 31.8302 303 31.1702 302.428C30.5249 301.856 30.2022 301.064 30.2022 300.052C30.2022 299.143 30.4589 298.417 30.9722 297.874C31.5002 297.317 32.3582 296.935 33.5462 296.73L36.2962 296.268C36.8389 296.18 37.2276 296.041 37.4622 295.85C37.7116 295.659 37.8362 295.373 37.8362 294.992C37.8362 294.449 37.6529 294.039 37.2862 293.76C36.9342 293.467 36.3109 293.32 35.4162 293.32C34.5216 293.32 33.8469 293.496 33.3922 293.848C32.9522 294.2 32.7029 294.728 32.6442 295.432H30.4442C30.4589 294.244 30.8916 293.313 31.7422 292.638C32.5929 291.963 33.7882 291.626 35.3282 291.626C36.8096 291.626 37.9316 291.934 38.6942 292.55C39.4716 293.166 39.8602 293.995 39.8602 295.036V300.492C39.8602 301.299 39.8969 302.135 39.9702 303H37.9682C37.8802 302.135 37.8362 301.306 37.8362 300.514C37.5869 301.306 37.1322 301.966 36.4722 302.494C35.8122 303.022 34.9396 303.286 33.8542 303.286ZM34.3162 301.592C35.4309 301.592 36.2962 301.225 36.9122 300.492C37.5282 299.744 37.8362 298.798 37.8362 297.654V296.994C37.5722 297.185 37.2862 297.339 36.9782 297.456C36.6702 297.559 36.3036 297.661 35.8782 297.764L34.3602 298.116C33.6709 298.277 33.1722 298.505 32.8642 298.798C32.5562 299.077 32.4022 299.465 32.4022 299.964C32.4022 300.477 32.5709 300.881 32.9082 301.174C33.2602 301.453 33.7296 301.592 34.3162 301.592ZM48.7864 291.648C50.2091 291.648 51.2284 292.022 51.8444 292.77C52.4751 293.518 52.7904 294.64 52.7904 296.136V303H50.5904V296.334C50.5904 295.263 50.3777 294.523 49.9524 294.112C49.5271 293.687 48.9257 293.474 48.1484 293.474C47.0337 293.474 46.1977 293.863 45.6404 294.64C45.0831 295.417 44.8044 296.657 44.8044 298.358V303H42.6044V292H44.8044V294.464C45.5671 292.587 46.8944 291.648 48.7864 291.648ZM65.5234 292V303H63.3234V300.602C62.5901 302.435 61.2921 303.352 59.4294 303.352C58.0068 303.352 56.9654 302.978 56.3054 302.23C55.6601 301.467 55.3374 300.345 55.3374 298.864V292H57.5374V298.666C57.5374 299.737 57.7574 300.485 58.1974 300.91C58.6521 301.321 59.2901 301.526 60.1114 301.526C61.1088 301.526 61.8934 301.115 62.4654 300.294C63.0374 299.458 63.3234 298.241 63.3234 296.642V292H65.5234ZM71.4457 303.286C70.3164 303.286 69.4217 303 68.7617 302.428C68.1164 301.856 67.7937 301.064 67.7937 300.052C67.7937 299.143 68.0504 298.417 68.5637 297.874C69.0917 297.317 69.9497 296.935 71.1377 296.73L73.8877 296.268C74.4304 296.18 74.819 296.041 75.0537 295.85C75.303 295.659 75.4277 295.373 75.4277 294.992C75.4277 294.449 75.2444 294.039 74.8777 293.76C74.5257 293.467 73.9024 293.32 73.0077 293.32C72.113 293.32 71.4384 293.496 70.9837 293.848C70.5437 294.2 70.2944 294.728 70.2357 295.432H68.0357C68.0504 294.244 68.483 293.313 69.3337 292.638C70.1844 291.963 71.3797 291.626 72.9197 291.626C74.401 291.626 75.523 291.934 76.2857 292.55C77.063 293.166 77.4517 293.995 77.4517 295.036V300.492C77.4517 301.299 77.4884 302.135 77.5617 303H75.5597C75.4717 302.135 75.4277 301.306 75.4277 300.514C75.1784 301.306 74.7237 301.966 74.0637 302.494C73.4037 303.022 72.531 303.286 71.4457 303.286ZM71.9077 301.592C73.0224 301.592 73.8877 301.225 74.5037 300.492C75.1197 299.744 75.4277 298.798 75.4277 297.654V296.994C75.1637 297.185 74.8777 297.339 74.5697 297.456C74.2617 297.559 73.895 297.661 73.4697 297.764L71.9517 298.116C71.2624 298.277 70.7637 298.505 70.4557 298.798C70.1477 299.077 69.9937 299.465 69.9937 299.964C69.9937 300.477 70.1624 300.881 70.4997 301.174C70.8517 301.453 71.321 301.592 71.9077 301.592ZM86.5979 291.824V293.958H86.0479C84.6545 293.958 83.6939 294.361 83.1659 295.168C82.6525 295.96 82.3959 297.17 82.3959 298.798V303H80.1959V292H82.3739V294.662C83.1365 292.77 84.4345 291.824 86.2679 291.824H86.5979ZM99.0191 292L94.4211 303.968C94.0691 304.877 93.7538 305.559 93.4751 306.014C93.1964 306.469 92.8151 306.813 92.3311 307.048C91.8471 307.283 91.1724 307.4 90.3071 307.4H88.4151V305.64H91.6711L92.7051 303H91.9131L87.7551 292H90.0211L92.9911 299.854L93.4531 301.174L93.8711 299.854L96.8851 292H99.0191ZM114.213 298.314H105.413V296.664H114.213V298.314ZM138.04 303H135.774V290.13L131.286 303H128.294L123.806 290.13V303H121.54V288.37H125.478L129.812 300.8L134.146 288.37H138.04V303ZM144.091 303.286C142.962 303.286 142.067 303 141.407 302.428C140.762 301.856 140.439 301.064 140.439 300.052C140.439 299.143 140.696 298.417 141.209 297.874C141.737 297.317 142.595 296.935 143.783 296.73L146.533 296.268C147.076 296.18 147.465 296.041 147.699 295.85C147.949 295.659 148.073 295.373 148.073 294.992C148.073 294.449 147.89 294.039 147.523 293.76C147.171 293.467 146.548 293.32 145.653 293.32C144.759 293.32 144.084 293.496 143.629 293.848C143.189 294.2 142.94 294.728 142.881 295.432H140.681C140.696 294.244 141.129 293.313 141.979 292.638C142.83 291.963 144.025 291.626 145.565 291.626C147.047 291.626 148.169 291.934 148.931 292.55C149.709 293.166 150.097 293.995 150.097 295.036V300.492C150.097 301.299 150.134 302.135 150.207 303H148.205C148.117 302.135 148.073 301.306 148.073 300.514C147.824 301.306 147.369 301.966 146.709 302.494C146.049 303.022 145.177 303.286 144.091 303.286ZM144.553 301.592C145.668 301.592 146.533 301.225 147.149 300.492C147.765 299.744 148.073 298.798 148.073 297.654V296.994C147.809 297.185 147.523 297.339 147.215 297.456C146.907 297.559 146.541 297.661 146.115 297.764L144.597 298.116C143.908 298.277 143.409 298.505 143.101 298.798C142.793 299.077 142.639 299.465 142.639 299.964C142.639 300.477 142.808 300.881 143.145 301.174C143.497 301.453 143.967 301.592 144.553 301.592ZM162.772 292L158.174 303.968C157.822 304.877 157.507 305.559 157.228 306.014C156.95 306.469 156.568 306.813 156.084 307.048C155.6 307.283 154.926 307.4 154.06 307.4H152.168V305.64H155.424L156.458 303H155.666L151.508 292H153.774L156.744 299.854L157.206 301.174L157.624 299.854L160.638 292H162.772Z" fill="#282A36"/>
<path d="M94.9948 63.8164V251.94L0.933105 157.878L94.9948 63.8164Z" fill="#E5F2F9" fill-opacity="0.8" stroke="#007CC2"/>
<path d="M32.094 161.745V163.377H23.854V152.737H32.046V154.369H25.902V157.169H31.566V158.721H25.902V161.745H32.094ZM33.0712 155.377H35.4072L37.3272 158.129L39.2152 155.377H41.3912L38.4312 159.329L41.5512 163.377H39.1992L37.2312 160.593L35.2632 163.377H33.0552L36.1112 159.425L33.0712 155.377ZM47.6224 155.121C48.8491 155.121 49.7717 155.521 50.3904 156.321C51.0091 157.11 51.3184 158.129 51.3184 159.377C51.3184 160.625 51.0091 161.649 50.3904 162.449C49.7717 163.238 48.8491 163.633 47.6224 163.633C46.9397 163.633 46.3531 163.5 45.8624 163.233C45.3717 162.966 44.9877 162.588 44.7104 162.097V166.577H42.7264V155.377H44.7104V156.641C45.2864 155.628 46.2571 155.121 47.6224 155.121ZM47.0784 162.065C47.8891 162.065 48.4651 161.852 48.8064 161.425C49.1584 160.988 49.3344 160.305 49.3344 159.377C49.3344 158.449 49.1584 157.772 48.8064 157.345C48.4651 156.908 47.8891 156.689 47.0784 156.689C46.2784 156.689 45.6811 156.908 45.2864 157.345C44.9024 157.782 44.7104 158.46 44.7104 159.377C44.7104 160.294 44.9024 160.972 45.2864 161.409C45.6811 161.846 46.2784 162.065 47.0784 162.065ZM54.7565 152.177V163.377H52.7725V152.177H54.7565ZM60.5035 163.633C59.5435 163.633 58.7435 163.446 58.1035 163.073C57.4635 162.689 56.9889 162.177 56.6795 161.537C56.3809 160.886 56.2315 160.161 56.2315 159.361C56.2315 158.572 56.3809 157.857 56.6795 157.217C56.9889 156.577 57.4635 156.07 58.1035 155.697C58.7435 155.313 59.5435 155.121 60.5035 155.121C61.4635 155.121 62.2635 155.313 62.9035 155.697C63.5435 156.081 64.0182 156.593 64.3275 157.233C64.6369 157.873 64.7915 158.582 64.7915 159.361C64.7915 160.15 64.6369 160.87 64.3275 161.521C64.0182 162.161 63.5435 162.673 62.9035 163.057C62.2635 163.441 61.4635 163.633 60.5035 163.633ZM58.2155 159.377C58.2155 160.337 58.3969 161.025 58.7595 161.441C59.1222 161.857 59.7035 162.065 60.5035 162.065C61.3035 162.065 61.8849 161.857 62.2475 161.441C62.6102 161.025 62.7915 160.337 62.7915 159.377C62.7915 158.417 62.6102 157.729 62.2475 157.313C61.8849 156.897 61.3035 156.689 60.5035 156.689C59.7035 156.689 59.1222 156.897 58.7595 157.313C58.3969 157.729 58.2155 158.417 58.2155 159.377ZM71.1987 155.249V157.169H70.6067C69.7107 157.169 69.0867 157.425 68.7347 157.937C68.3827 158.438 68.2067 159.217 68.2067 160.273V163.377H66.2227V155.377H68.1587V157.233C68.628 155.91 69.5133 155.249 70.8147 155.249H71.1987ZM76.0463 162.225C77.145 162.225 77.8276 161.804 78.0943 160.961H79.9663C79.8596 161.686 79.4916 162.316 78.8623 162.849C78.233 163.372 77.273 163.633 75.9823 163.633C74.5743 163.633 73.529 163.233 72.8463 162.433C72.1636 161.633 71.8223 160.609 71.8223 159.361C71.8223 158.561 71.9716 157.841 72.2703 157.201C72.5796 156.561 73.0436 156.054 73.6623 155.681C74.2916 155.308 75.065 155.121 75.9823 155.121C76.8783 155.121 77.625 155.308 78.2223 155.681C78.8303 156.044 79.2783 156.54 79.5663 157.169C79.8543 157.788 79.9983 158.492 79.9983 159.281C79.9983 159.505 79.9823 159.713 79.9503 159.905H73.7423C73.8063 160.748 74.0356 161.345 74.4303 161.697C74.825 162.049 75.3636 162.225 76.0463 162.225ZM76.0143 156.513C75.353 156.513 74.8356 156.673 74.4623 156.993C74.0996 157.302 73.8703 157.836 73.7743 158.593H78.0943C78.0196 157.206 77.3263 156.513 76.0143 156.513Z" fill="#282A36"/>
</svg>
