<svg height="455" viewBox="0 0 596 455" fill="none" xmlns="http://www.w3.org/2000/svg">
<rect x="32.4088" y="41.6" width="495.8" height="281.8" fill="white" stroke="#282A36" stroke-width="1.2"/>
<rect x="32.75" y="314.75" width="495.5" height="8.5" fill="#282A36" stroke="#282A36" stroke-width="1.5"/>
<rect x="32.4088" y="41.6" width="495.8" height="16.8" fill="#F6F7FB" stroke="#282A36" stroke-width="1.2"/>
<rect x="243.809" y="138" width="37" height="37" fill="#007CC2" fill-opacity="0.1"/>
<rect x="244.309" y="138.5" width="36" height="36" stroke="#007CC2" stroke-opacity="0.35"/>
<rect x="192.494" y="140" width="37" height="37" transform="rotate(16.4761 192.494 140)" fill="#007CC2" fill-opacity="0.1"/>
<rect x="192.832" y="140.621" width="36" height="36" transform="rotate(16.4761 192.832 140.621)" stroke="#007CC2" stroke-opacity="0.35"/>
<circle cx="40.8088" cy="50" r="4" fill="#CC0000"/>
<circle cx="52.8088" cy="50" r="4" fill="#FFC960"/>
<circle cx="64.8088" cy="50" r="4" fill="#52F48A"/>
<rect x="384.409" y="0.6" width="210.8" height="128.8" fill="white" stroke="#282A36" stroke-width="1.2"/>
<rect x="549.409" y="0.6" width="45.8" height="32.8" fill="white" stroke="#282A36" stroke-width="1.2"/>
<rect x="549.409" y="64.6" width="45.8" height="33.8" fill="white" stroke="#282A36" stroke-width="1.2"/>
<rect x="549.409" y="32.6" width="45.8" height="33.8" fill="white" stroke="#282A36" stroke-width="1.2"/>
<rect x="549.409" y="96.6" width="45.8" height="32.8" fill="white" stroke="#282A36" stroke-width="1.2"/>
<rect x="263" y="216" width="36" height="37" fill="#007CC2" fill-opacity="0.1"/>
<rect x="263.5" y="216.5" width="35" height="36" stroke="#007CC2" stroke-opacity="0.35"/>
<rect x="243.809" y="92" width="37" height="37" fill="#CC0000" fill-opacity="0.1"/>
<rect x="244.309" y="92.5" width="36" height="36" stroke="#CC0000" stroke-opacity="0.15"/>
<rect x="308" y="158.783" width="37" height="37" transform="rotate(-20.2118 308 158.783)" fill="#CC0000" fill-opacity="0.1"/>
<rect x="308.642" y="159.08" width="36" height="36" transform="rotate(-20.2118 308.642 159.08)" stroke="#CC0000" stroke-opacity="0.15"/>
<path d="M429.338 434.551C428.151 434.987 428.979 439.23 430.034 441.033L437.046 441.321C437.046 441.321 436.85 434.824 435.835 434.355C434.821 433.885 430.526 434.115 429.338 434.551Z" fill="#F6F7FB"/>
<path d="M434.507 440.274L432.414 420.451L448.907 419.954L448.867 451.773L415.382 452.783C415.177 445.983 430.626 442.159 434.507 440.274Z" fill="#FF6359"/>
<path d="M431.978 439.35L449.976 438.807C449.976 438.807 452.308 449.779 450.366 451.728L414.882 452.798C414.677 445.998 428.097 441.235 431.978 439.35Z" fill="#F6F7FB"/>
<path d="M450.876 451.021C451.045 449.508 451.069 445.15 450.693 441" stroke="#282A36"/>
<path d="M396 132H402V141H396V132Z" stroke="#282A36"/>
<path d="M417.411 351.612C417.411 342.744 412 299.144 412 278.453V270.912C427.333 269.065 458 266.922 458 273.129C458 279.337 453.189 329.812 448.078 351.612C447.613 375.259 452.448 422.947 449.103 424.72C444.921 426.937 433.688 425.829 432.294 424.72C430.9 423.612 417.411 362.697 417.411 351.612Z" fill="#282A36"/>
<path d="M457.378 239.898C465.722 196.029 452.163 171.687 444.341 165L430 262.635C435.649 273.334 449.034 283.766 457.378 239.898Z" fill="#F6F7FB"/>
<path d="M399.065 132.993C398.002 153.061 410.14 157.198 416.341 156.758V166H430.959C430.516 161.599 429.896 148.572 430.959 131.672C432.288 110.548 400.394 107.907 399.065 132.993Z" fill="#FF6359"/>
<path d="M396 133L419 137" stroke="#282A36"/>
<path d="M409.342 164C414.671 164 414.227 141.917 414.671 132.2C413.248 129.369 399.451 123.918 400.016 120.275C400.686 115.961 416.308 111 422.665 111C437.32 111 439.985 122.925 442.649 132.2C444.781 139.62 444.426 158.258 441.317 164H409.342Z" fill="#282A36"/>
<path d="M397.286 434.225C396.066 434.562 396.543 438.859 397.446 440.742L404.411 441.606C404.411 441.606 404.749 435.115 403.777 434.564C402.804 434.012 398.505 433.888 397.286 434.225Z" fill="#F6F7FB"/>
<path d="M401.967 440.355L401.51 420.426L417.988 421.286L415.332 452.995L381.877 451.249C382.232 444.454 397.944 441.914 401.967 440.355Z" fill="#FF6359"/>
<path d="M399.522 439.226L417.504 440.164C417.504 440.164 418.926 451.29 416.83 453.073L381.378 451.223C381.733 444.428 395.499 440.785 399.522 439.226Z" fill="#F6F7FB"/>
<path d="M418.033 452.331C418.209 450.819 418.251 446.461 417.892 442.31" stroke="#282A36"/>
<path d="M397.647 350.557L401.466 277.366L401.582 275.148C416.658 274.082 446.729 273.501 446.405 279.712C446.081 285.922 433.737 330.572 427.606 352.121C425.917 375.755 421.7 423.424 418.339 425.027C414.138 427.032 400.578 425.213 399.274 424.033C397.97 422.853 397.068 361.647 397.647 350.557Z" fill="#282A36"/>
<path d="M444.074 299.275C440.962 312.928 430.328 342.499 428.965 352.036C427.602 361.572 428.805 363.203 425.5 383.5" stroke="#7A7A7A"/>
<path d="M385.917 216.926C397.589 179.385 408.487 170 412.442 170C433.664 170 433.664 190.111 399.177 230.334C380.607 251.993 368.673 231.675 355.406 184.748C354.957 183.161 345.832 181.769 341.5 179C338.709 177.215 340.831 171 345.915 171C351 171 356.675 176.167 359.385 179.385C366.017 184.748 385.917 216.926 385.917 216.926Z" fill="#FF6359"/>
<path d="M365.5 186C364.428 190.256 358.231 191.223 356 190.779C361.355 214.719 372.065 241.318 385.454 239.988C393.487 239.19 398.842 236.319 402.859 230.678C402.859 230.678 397.503 262.597 401.52 277.227C424.28 281.217 457.751 277.227 457.751 277.227C464.445 263.927 455.073 178.81 444.362 165.511C447.04 153.541 448.026 140.345 443.023 122.952C437.668 104.333 408.568 109.762 404.197 114.972C397.503 122.952 430.974 161.521 412.23 166.84C402.736 169.535 391.255 200.089 385.454 216.049C378.76 204.079 366.571 181.744 365.5 186Z" fill="#F6F7FB"/>
<path d="M403 230C406.555 226.045 415.533 213.655 423 201" stroke="#282A36"/>
<path d="M350 173.896C349.171 173.452 346.602 172.375 344 171.521" stroke="#282A36"/>
<path d="M347 175.896C346.171 175.452 343.602 174.375 341 173.521" stroke="#282A36"/>
<path d="M346 178.896C345.171 178.452 342.601 177.375 340 176.521" stroke="#282A36"/>
<path d="M457.598 227.693C457.598 215.708 456.317 209.05 453.603 197.065" stroke="#282A36"/>
<path d="M138.249 135.859C138.218 155.956 125.873 159.426 119.704 158.648L119.201 167.877L104.605 167.08C105.287 162.71 106.616 149.736 106.475 132.804C106.298 111.638 138.289 110.738 138.249 135.859Z" fill="#FF6359"/>
<path d="M115.222 146.128C110.447 141.861 114.931 133.093 120.123 138.884C120.898 136.923 122.485 132.303 122.638 129.507C128.574 130.832 131.197 131.278 137.116 130.297C141.664 129.544 145.236 123.73 140.157 120.448C137.188 118.529 136.245 124.24 133.667 120.094C127.222 109.728 109.394 115.265 105.545 121.564C101.696 127.864 103.04 139.955 106.126 147.635C109.957 150.848 117.557 148.215 115.222 146.128Z" fill="#282A36"/>
<path d="M108.663 434.551C109.851 434.987 109.022 439.23 107.967 441.033L100.956 441.321C100.956 441.321 101.152 434.824 102.166 434.355C103.181 433.885 107.476 434.115 108.663 434.551Z" fill="#F6F7FB"/>
<path d="M103.494 440.274L105.587 420.451L89.0946 419.954L89.1348 451.773L122.62 452.783C122.825 445.983 107.375 442.159 103.494 440.274Z" fill="#FF6359"/>
<path d="M106.023 439.35L88.0254 438.807C88.0254 438.807 85.6934 449.779 87.6355 451.728L123.119 452.798C123.325 445.998 109.904 441.235 106.023 439.35Z" fill="#F6F7FB"/>
<path d="M87.1262 451.021C86.9564 449.508 86.9327 445.15 87.3085 441" stroke="#282A36"/>
<path d="M120.59 351.612C120.59 342.744 126.002 299.144 126.002 278.453V270.912C110.669 269.065 80.002 266.922 80.002 273.129C80.002 279.337 84.8124 329.812 89.9235 351.612C90.3882 375.259 85.5531 422.947 88.8986 424.72C93.0804 426.937 104.314 425.829 105.708 424.72C107.102 423.612 120.59 362.697 120.59 351.612Z" fill="#282A36"/>
<path d="M77.9824 239.134C75.3306 194.558 91.8981 172.155 100.513 166.526L102.221 265.193C95.2462 275.081 80.6342 283.711 77.9824 239.134Z" fill="#007CC2"/>
<path d="M140.716 434.225C141.935 434.562 141.458 438.859 140.555 440.742L133.591 441.606C133.591 441.606 133.252 435.115 134.225 434.564C135.197 434.012 139.497 433.888 140.716 434.225Z" fill="#F6F7FB"/>
<path d="M136.035 440.355L136.491 420.426L120.013 421.286L122.67 452.995L156.124 451.249C155.769 444.454 140.058 441.914 136.035 440.355Z" fill="#FF6359"/>
<path d="M138.479 439.226L120.498 440.164C120.498 440.164 119.076 451.29 121.172 453.073L156.623 451.223C156.269 444.428 142.502 440.785 138.479 439.226Z" fill="#F6F7FB"/>
<path d="M119.968 452.331C119.792 450.819 119.75 446.461 120.109 442.31" stroke="#282A36"/>
<path d="M140.355 350.557L136.535 277.366L136.419 275.148C121.343 274.082 91.2722 273.501 91.5963 279.712C91.9204 285.922 104.264 330.572 110.396 352.121C112.084 375.755 116.302 423.424 119.662 425.027C123.863 427.032 137.423 425.213 138.727 424.033C140.031 422.853 140.934 361.647 140.355 350.557Z" fill="#282A36"/>
<path d="M93.9276 299.275C97.0394 312.928 107.673 342.499 109.036 352.036C110.399 361.572 109.197 363.203 112.501 383.5" stroke="#7A7A7A"/>
<path d="M152.085 216.926C140.412 179.385 129.515 170 125.56 170C104.337 170 104.337 190.111 138.824 230.334C157.394 251.993 169.328 231.675 182.596 184.748C183.334 182.139 202.086 175.363 197.187 172.681C192.287 170 181.327 176.167 178.617 179.385C171.984 184.748 152.085 216.926 152.085 216.926Z" fill="#FF6359"/>
<path d="M172.502 186C173.573 190.256 179.771 191.223 182.002 190.779C176.647 214.718 165.936 241.318 152.548 239.988C144.515 239.19 139.159 236.319 135.143 230.678C135.143 230.678 140.498 262.597 136.482 277.227C113.722 281.217 80.2508 277.227 80.2508 277.227C73.5567 263.927 89.7894 179.799 100.5 166.5C100.5 166.5 120.086 165.511 124.771 166.84C138.5 176.5 146.746 200.089 152.548 216.049C159.242 204.079 171.431 181.744 172.502 186Z" fill="#007CC2"/>
<path d="M135.002 230C131.446 226.045 122.469 213.655 115.002 201" stroke="#282A36"/>
<path d="M83.403 231.693C83.403 219.708 84.684 213.05 87.3987 201.065" stroke="#282A36"/>
<path d="M40 137.5H39.34L39.5187 138.135L43.5883 152.605L25.3172 137.613L25.1789 137.5H25H8C3.85786 137.5 0.5 134.142 0.5 130L0.5 109C0.5 104.858 3.85786 101.5 8 101.5H56C60.1421 101.5 63.5 104.858 63.5 109V130C63.5 134.142 60.1421 137.5 56 137.5H40Z" fill="#FAE5E5" stroke="#F3C3C3"/>
<circle cx="16" cy="119" r="4" fill="#F3C3C3"/>
<circle cx="32" cy="119" r="4" fill="#F3C3C3"/>
<circle cx="48" cy="119" r="4" fill="#F3C3C3"/>
<path d="M475 98.5H475.66L475.481 99.1354L471.412 113.605L489.683 98.6135L489.821 98.5H490H507C511.142 98.5 514.5 95.1421 514.5 91V70C514.5 65.8579 511.142 62.5 507 62.5H459C454.858 62.5 451.5 65.8579 451.5 70V91C451.5 95.1421 454.858 98.5 459 98.5H475Z" fill="#E5F2F9" stroke="#95C9E6"/>
<circle r="4" transform="matrix(-1 0 0 1 499 80)" fill="#95C9E6"/>
<circle r="4" transform="matrix(-1 0 0 1 483 80)" fill="#95C9E6"/>
<circle r="4" transform="matrix(-1 0 0 1 467 80)" fill="#95C9E6"/>
</svg>
