<svg width="32" height="28" viewBox="0 0 32 28" fill="none" xmlns="http://www.w3.org/2000/svg">
<path d="M11.0589 0.30947C11.8462 -0.191578 12.562 -0.0842087 13.2062 0.631576C13.8504 1.27578 13.8147 1.95578 13.0989 2.67156C9.80626 5.74944 7.80206 8.93468 7.08627 12.2273C6.87154 13.301 7.19364 13.8378 8.05259 13.8378C9.55574 13.8378 10.8084 14.4462 11.8105 15.6631C12.8841 16.8083 13.421 18.3115 13.421 20.1725C13.421 22.2483 12.8126 23.9304 11.5957 25.2188C10.4505 26.5072 8.87574 27.1514 6.87154 27.1514C4.93892 27.1514 3.29261 26.4356 1.93262 25.0041C0.644207 23.5725 0 21.6399 0 19.2062C0 11.6905 3.68629 5.39155 11.0589 0.30947ZM29.3949 0.30947C30.1823 -0.191578 30.8981 -0.0842087 31.5423 0.631576C32.1865 1.27578 32.1507 1.95578 31.4349 2.67156C28.0707 5.74944 26.0665 8.93468 25.4223 12.2273C25.2076 13.301 25.5297 13.8378 26.3886 13.8378C27.8918 13.8378 29.1444 14.4462 30.1465 15.6631C31.1486 16.8083 31.6496 18.3115 31.6496 20.1725C31.6496 22.2483 31.0412 23.9304 29.8244 25.2188C28.6791 26.5072 27.1402 27.1514 25.2076 27.1514C23.275 27.1514 21.6286 26.4356 20.2687 25.0041C18.9802 23.5725 18.336 21.6399 18.336 19.2062C18.336 11.6905 22.0223 5.39155 29.3949 0.30947Z" fill="#339AF0"/>
</svg>
